<?xml version="1.0" encoding="UTF-8"?>
<svg xmlns="http://www.w3.org/2000/svg" xmlns:xlink="http://www.w3.org/1999/xlink" width="12pt" height="17pt" viewBox="0 0 12 17" version="1.1">
<g id="surface1">
<path style=" stroke:none;fill-rule:nonzero;fill:rgb(0%,0%,0%);fill-opacity:1;" d="M 8.273438 8.5 L 11.6875 5.175781 C 12.105469 4.769531 12.105469 4.109375 11.6875 3.699219 L 10.929688 2.960938 C 10.507812 2.554688 9.832031 2.554688 9.410156 2.960938 L 6 6.285156 L 2.589844 2.960938 C 2.167969 2.554688 1.492188 2.554688 1.070312 2.960938 L 0.3125 3.699219 C -0.105469 4.109375 -0.105469 4.769531 0.3125 5.175781 L 3.726562 8.5 L 0.3125 11.824219 C -0.105469 12.230469 -0.105469 12.890625 0.3125 13.300781 L 1.070312 14.039062 C 1.492188 14.445312 2.167969 14.445312 2.589844 14.039062 L 6 10.714844 L 9.410156 14.039062 C 9.832031 14.445312 10.507812 14.445312 10.929688 14.039062 L 11.6875 13.300781 C 12.105469 12.890625 12.105469 12.230469 11.6875 11.824219 Z M 8.273438 8.5 "/>
</g>
</svg>
